<?xml version="1.0" standalone="no"?><!DOCTYPE svg PUBLIC "-//W3C//DTD SVG 1.1//EN" "http://www.w3.org/Graphics/SVG/1.1/DTD/svg11.dtd"><svg t="1701327529022" class="icon" viewBox="0 0 1024 1024" version="1.1" xmlns="http://www.w3.org/2000/svg" p-id="2969" xmlns:xlink="http://www.w3.org/1999/xlink" width="200" height="200"><path d="M660.096 128c107.712 0 167.68 52.48 171.712 149.44L832 288v403.2c0 13.248-10.944 24.32-25.28 25.6-14.4 1.152-27.328-7.936-29.952-20.992l-0.448-4.608V288c0-75.52-35.584-108.8-116.224-108.8-77.376 0-114.624 30.848-119.744 99.2l-0.512 9.6v448c0 103.68-61.056 160-173.696 160-108.8 0-169.536-52.48-173.952-149.44L192 736V332.8c0-13.248 10.944-24.32 25.28-25.6 14.4-1.152 27.328 7.936 29.952 20.992l0.448 4.608v403.2c0.192 75.392 36.48 108.8 118.4 108.8 78.528 0 115.008-30.592 117.952-99.584l0.128-9.216V287.296C487.296 183.936 548.928 128 660.096 128z" fill="#007D7B" p-id="2970"></path><path d="M64 192a128 128 0 1 0 256 0 128 128 0 0 0-256 0zM704 832a128 128 0 1 0 256 0 128 128 0 0 0-256 0z" fill="#007D7B" p-id="2971"></path></svg>